<?xml version="1.0" encoding="UTF-8"?>
<!DOCTYPE svg PUBLIC "-//W3C//DTD SVG 1.1//EN" "http://www.w3.org/Graphics/SVG/1.1/DTD/svg11.dtd">
<!-- Creator: CorelDRAW 2020 (64-Bit) -->
<svg xmlns="http://www.w3.org/2000/svg" xml:space="preserve" width="640px" height="640px" version="1.1" style="shape-rendering:geometricPrecision; text-rendering:geometricPrecision; image-rendering:optimizeQuality; fill-rule:evenodd; clip-rule:evenodd"
viewBox="0 0 640 640"
 xmlns:xlink="http://www.w3.org/1999/xlink"
 xmlns:xodm="http://www.corel.com/coreldraw/odm/2003">
 <defs>
  <style type="text/css">
   <![CDATA[
    .str3 {stroke:#E6D2E6;stroke-width:5;stroke-linejoin:bevel;stroke-miterlimit:22.9256}
    .str2 {stroke:#E6FAFA;stroke-width:5;stroke-linejoin:bevel;stroke-miterlimit:22.9256}
    .str1 {stroke:#FAE6E6;stroke-width:5;stroke-linejoin:bevel;stroke-miterlimit:22.9256}
    .str0 {stroke:white;stroke-width:5;stroke-linejoin:bevel;stroke-miterlimit:22.9256}
    .fil0 {fill:none}
    .fil6 {fill:#DCDCF0}
    .fil2 {fill:#E6D2E6}
    .fil3 {fill:#E6FAFA}
    .fil5 {fill:#F0DCDC}
    .fil4 {fill:#F0F0F0}
    .fil1 {fill:#FAE6E6}
   ]]>
  </style>
 </defs>
 <g id="Capa_x0020_1">
  <metadata id="CorelCorpID_0Corel-Layer"/>
  <polygon class="fil0 str0" points="169.89,60 320,60 470.11,60 545.17,190 620.22,320 545.17,450 470.11,580 320,580 169.89,580 94.83,450 19.78,320 94.83,190 "/>
  <rect class="fil1" x="169.89" y="60" width="300.22" height="173.34"/>
  <rect class="fil2" transform="matrix(-0.469097 -0.812499 0.812499 -0.469097 169.886 580)" width="320" height="184.75"/>
  <rect class="fil3" transform="matrix(0.469097 -0.812499 -0.812499 -0.469097 470.111 580)" width="320" height="184.75"/>
  <polygon class="fil4" points="620.22,320 470.11,60 470.11,233.33 "/>
  <polygon class="fil5" points="169.89,60 19.78,320 169.89,233.33 "/>
  <polygon class="fil6" points="169.89,580 470.11,580 320,493.33 "/>
  <polygon class="fil2 str0" points="320,493.33 470.11,233.33 320,320 "/>
  <polygon class="fil5" points="320,493.33 470.11,233.33 320,320 "/>
  <polygon class="fil6" points="169.89,233.33 470.11,233.33 320,320 "/>
  <polygon class="fil4" points="320,493.33 169.89,233.33 320,320 "/>
  <line class="fil0 str1" x1="19.78" y1="320" x2="320" y2= "493.33" />
  <line class="fil0 str2" x1="169.89" y1="233.33" x2="470.11" y2= "60" />
  <line class="fil0 str3" x1="470.11" y1="233.33" x2="470.11" y2= "580" />
  <g id="_1758887444400">
   <rect class="fil0 str0" x="169.89" y="60" width="300.22" height="173.34"/>
   <rect class="fil0 str0" transform="matrix(-0.469097 -0.812499 0.812499 -0.469097 169.889 580)" width="320" height="184.75"/>
   <rect class="fil0 str0" transform="matrix(0.469097 -0.812499 -0.812499 -0.469097 470.114 580)" width="320" height="184.75"/>
   <polygon class="fil0 str0" points="620.22,320 470.11,60 470.11,233.33 "/>
   <polygon class="fil0 str0" points="169.89,60 19.78,320 169.89,233.33 "/>
   <polygon class="fil0 str0" points="169.89,580 470.12,580 320,493.33 "/>
  </g>
 </g>
</svg>
